<mxfile host="app.diagrams.net" agent="Mozilla/5.0 (Macintosh; Intel Mac OS X 10_15_7) AppleWebKit/537.36 (KHTML, like Gecko) Chrome/140.0.0.0 Safari/537.36" version="28.2.2">
  <diagram name="Page-1" id="2Ny9Chgt3sHqn--4_kOs">
    <mxGraphModel dx="3563" dy="2067" grid="1" gridSize="10" guides="1" tooltips="1" connect="1" arrows="1" fold="1" page="1" pageScale="1" pageWidth="850" pageHeight="1100" math="0" shadow="0">
      <root>
        <mxCell id="0" />
        <mxCell id="1" parent="0" />
        <mxCell id="Nxmq5Ar96o9dgUy76F0X-30" value="" style="rounded=0;whiteSpace=wrap;html=1;fillColor=#99FF99;" parent="1" vertex="1">
          <mxGeometry x="65" y="500" width="720" height="440" as="geometry" />
        </mxCell>
        <mxCell id="Nxmq5Ar96o9dgUy76F0X-22" value="" style="rounded=0;whiteSpace=wrap;html=1;fillColor=#FFCC99;" parent="1" vertex="1">
          <mxGeometry x="235" y="350" width="320" height="220" as="geometry" />
        </mxCell>
        <mxCell id="Nxmq5Ar96o9dgUy76F0X-1" value="" style="image;html=1;image=img/lib/clip_art/general/Earth_globe_128x128.png" parent="1" vertex="1">
          <mxGeometry x="355" y="60" width="80" height="90" as="geometry" />
        </mxCell>
        <mxCell id="Nxmq5Ar96o9dgUy76F0X-5" value="" style="shape=image;html=1;verticalAlign=top;verticalLabelPosition=bottom;labelBackgroundColor=#ffffff;imageAspect=0;aspect=fixed;image=https://icons.diagrams.net/icon-cache1/Security_Double_Color_Red_and_black_vol_2-2413/fire__wall__firewall__security-520.svg" parent="1" vertex="1">
          <mxGeometry x="364" y="240" width="52" height="52" as="geometry" />
        </mxCell>
        <mxCell id="Nxmq5Ar96o9dgUy76F0X-6" value="" style="image;html=1;image=img/lib/clip_art/networking/Router_128x128.png" parent="1" vertex="1">
          <mxGeometry x="355" y="340" width="80" height="80" as="geometry" />
        </mxCell>
        <mxCell id="Nxmq5Ar96o9dgUy76F0X-14" value="" style="edgeStyle=orthogonalEdgeStyle;rounded=0;orthogonalLoop=1;jettySize=auto;html=1;" parent="1" source="Nxmq5Ar96o9dgUy76F0X-7" target="Nxmq5Ar96o9dgUy76F0X-8" edge="1">
          <mxGeometry relative="1" as="geometry" />
        </mxCell>
        <mxCell id="Nxmq5Ar96o9dgUy76F0X-7" value="" style="shape=image;html=1;verticalAlign=top;verticalLabelPosition=bottom;labelBackgroundColor=#ffffff;imageAspect=0;aspect=fixed;image=https://icons.diagrams.net/icon-cache1/Security_Double_Color_Red_and_black_vol_2-2413/fire__wall__firewall__security-520.svg" parent="1" vertex="1">
          <mxGeometry x="369" y="670" width="52" height="52" as="geometry" />
        </mxCell>
        <mxCell id="Nxmq5Ar96o9dgUy76F0X-8" value="" style="image;html=1;image=img/lib/clip_art/networking/Router_128x128.png" parent="1" vertex="1">
          <mxGeometry x="355" y="500" width="80" height="80" as="geometry" />
        </mxCell>
        <mxCell id="Nxmq5Ar96o9dgUy76F0X-10" value="" style="endArrow=classic;startArrow=classic;html=1;rounded=0;" parent="1" source="Nxmq5Ar96o9dgUy76F0X-5" target="Nxmq5Ar96o9dgUy76F0X-1" edge="1">
          <mxGeometry width="50" height="50" relative="1" as="geometry">
            <mxPoint x="360" y="210" as="sourcePoint" />
            <mxPoint x="410" y="160" as="targetPoint" />
          </mxGeometry>
        </mxCell>
        <mxCell id="Nxmq5Ar96o9dgUy76F0X-12" value="" style="endArrow=classic;startArrow=classic;html=1;rounded=0;entryX=0.5;entryY=1;entryDx=0;entryDy=0;" parent="1" target="Nxmq5Ar96o9dgUy76F0X-5" edge="1">
          <mxGeometry width="50" height="50" relative="1" as="geometry">
            <mxPoint x="394" y="360" as="sourcePoint" />
            <mxPoint x="396.5" y="280" as="targetPoint" />
          </mxGeometry>
        </mxCell>
        <mxCell id="Nxmq5Ar96o9dgUy76F0X-13" value="" style="endArrow=classic;startArrow=classic;html=1;rounded=0;exitX=0.5;exitY=0;exitDx=0;exitDy=0;" parent="1" edge="1">
          <mxGeometry width="50" height="50" relative="1" as="geometry">
            <mxPoint x="388.5" y="500" as="sourcePoint" />
            <mxPoint x="391.5" y="410" as="targetPoint" />
          </mxGeometry>
        </mxCell>
        <mxCell id="Nxmq5Ar96o9dgUy76F0X-16" value="" style="endArrow=classic;html=1;rounded=0;exitX=0.635;exitY=0.942;exitDx=0;exitDy=0;exitPerimeter=0;" parent="1" source="Nxmq5Ar96o9dgUy76F0X-7" edge="1">
          <mxGeometry width="50" height="50" relative="1" as="geometry">
            <mxPoint x="410" y="830" as="sourcePoint" />
            <mxPoint x="400" y="780" as="targetPoint" />
          </mxGeometry>
        </mxCell>
        <mxCell id="Nxmq5Ar96o9dgUy76F0X-17" value="" style="endArrow=none;html=1;rounded=0;" parent="1" edge="1">
          <mxGeometry width="50" height="50" relative="1" as="geometry">
            <mxPoint x="300" y="790" as="sourcePoint" />
            <mxPoint x="520" y="790" as="targetPoint" />
          </mxGeometry>
        </mxCell>
        <mxCell id="Nxmq5Ar96o9dgUy76F0X-18" value="" style="sketch=0;aspect=fixed;pointerEvents=1;shadow=0;dashed=0;html=1;strokeColor=none;labelPosition=center;verticalLabelPosition=bottom;verticalAlign=top;align=center;fillColor=#00188D;shape=mxgraph.azure.computer" parent="1" vertex="1">
          <mxGeometry x="270" y="860" width="50" height="45" as="geometry" />
        </mxCell>
        <mxCell id="Nxmq5Ar96o9dgUy76F0X-19" value="" style="image;html=1;image=img/lib/clip_art/computers/Laptop_128x128.png" parent="1" vertex="1">
          <mxGeometry x="480" y="850" width="80" height="80" as="geometry" />
        </mxCell>
        <mxCell id="Nxmq5Ar96o9dgUy76F0X-20" value="" style="endArrow=classic;html=1;rounded=0;exitX=0.635;exitY=0.942;exitDx=0;exitDy=0;exitPerimeter=0;" parent="1" edge="1">
          <mxGeometry width="50" height="50" relative="1" as="geometry">
            <mxPoint x="521" y="789" as="sourcePoint" />
            <mxPoint x="519" y="850" as="targetPoint" />
          </mxGeometry>
        </mxCell>
        <mxCell id="Nxmq5Ar96o9dgUy76F0X-21" value="" style="endArrow=classic;html=1;rounded=0;exitX=0.635;exitY=0.942;exitDx=0;exitDy=0;exitPerimeter=0;" parent="1" edge="1">
          <mxGeometry width="50" height="50" relative="1" as="geometry">
            <mxPoint x="302" y="789" as="sourcePoint" />
            <mxPoint x="300" y="850" as="targetPoint" />
          </mxGeometry>
        </mxCell>
        <mxCell id="Nxmq5Ar96o9dgUy76F0X-23" value="pfSense 1.0.1&amp;nbsp;&lt;div&gt;&lt;br&gt;&lt;/div&gt;&lt;div&gt;Version History Routers are on&lt;/div&gt;" style="text;html=1;align=center;verticalAlign=middle;whiteSpace=wrap;rounded=0;" parent="1" vertex="1">
          <mxGeometry x="250" y="400" width="60" height="30" as="geometry" />
        </mxCell>
        <mxCell id="Nxmq5Ar96o9dgUy76F0X-25" value="DemoRouter1&lt;div&gt;IP: 128.192.255.0&lt;/div&gt;" style="rounded=0;whiteSpace=wrap;html=1;" parent="1" vertex="1">
          <mxGeometry x="440" y="360" width="90" height="50" as="geometry" />
        </mxCell>
        <mxCell id="Nxmq5Ar96o9dgUy76F0X-26" value="&lt;div&gt;Interface67&lt;/div&gt;&lt;span style=&quot;color: rgb(0, 0, 0); font-family: Helvetica; font-size: 12px; font-style: normal; font-variant-ligatures: normal; font-variant-caps: normal; font-weight: 400; letter-spacing: normal; orphans: 2; text-align: center; text-indent: 0px; text-transform: none; widows: 2; word-spacing: 0px; -webkit-text-stroke-width: 0px; white-space: normal; background-color: rgb(236, 236, 236); text-decoration-thickness: initial; text-decoration-style: initial; text-decoration-color: initial; float: none; display: inline !important;&quot;&gt;IP: 100.192.0.1726&lt;/span&gt;&lt;div&gt;&lt;span style=&quot;color: rgb(0, 0, 0); font-family: Helvetica; font-size: 12px; font-style: normal; font-variant-ligatures: normal; font-variant-caps: normal; font-weight: 400; letter-spacing: normal; orphans: 2; text-align: center; text-indent: 0px; text-transform: none; widows: 2; word-spacing: 0px; -webkit-text-stroke-width: 0px; white-space: normal; background-color: rgb(236, 236, 236); text-decoration-thickness: initial; text-decoration-style: initial; text-decoration-color: initial; float: none; display: inline !important;&quot;&gt;Subnet Mask- Router has list of usable IP to look for&amp;nbsp;&lt;/span&gt;&lt;/div&gt;" style="rounded=0;whiteSpace=wrap;html=1;" parent="1" vertex="1">
          <mxGeometry x="440" y="470" width="110" height="90" as="geometry" />
        </mxCell>
        <mxCell id="Nxmq5Ar96o9dgUy76F0X-28" value="DemoClientA&lt;div&gt;OS: (Red Star OS)&amp;nbsp;&lt;/div&gt;&lt;div&gt;IP: 180.192.0.35&lt;/div&gt;&lt;div&gt;Subnet: 255.255.255.192&lt;/div&gt;&lt;div&gt;Gateway: 180.192.0.1&lt;/div&gt;&lt;div&gt;DNS: 8.8.8.8&lt;/div&gt;" style="rounded=0;whiteSpace=wrap;html=1;" parent="1" vertex="1">
          <mxGeometry x="80" y="740" width="170" height="100" as="geometry" />
        </mxCell>
        <mxCell id="Nxmq5Ar96o9dgUy76F0X-29" value="DemoClientA&lt;div&gt;OS: (Red Star OS)&amp;nbsp;&lt;/div&gt;&lt;div&gt;IP: 180.192.0.35&lt;/div&gt;&lt;div&gt;Subnet: 255.255.255.192&lt;/div&gt;&lt;div&gt;Gateway: 180.192.0.1&lt;/div&gt;&lt;div&gt;DNS: 8.8.8.8&lt;/div&gt;" style="rounded=0;whiteSpace=wrap;html=1;" parent="1" vertex="1">
          <mxGeometry x="530" y="750" width="175" height="100" as="geometry" />
        </mxCell>
      </root>
    </mxGraphModel>
  </diagram>
</mxfile>
